<svg xmlns="http://www.w3.org/2000/svg" viewBox="0 0 512 512" width="512" height="512"><g transform="translate(256 256) rotate(0) scale(0.72 0.72) translate(-320 -256)"><metadata xmlns="http://www.w3.org/2000/svg"><x:xmpmeta xmlns:x="adobe:ns:meta/"><rdf:RDF xmlns:rdf="http://www.w3.org/1999/02/22-rdf-syntax-ns#"><rdf:Description rdf:about="" xmlns:dc="http://purl.org/dc/elements/1.1/"><dc:creator><rdf:Seq><rdf:li>Freeicon</rdf:li></rdf:Seq></dc:creator><dc:rights><rdf:Alt><rdf:li xml:lang="x-default">Free for personal and commercial use - freeicon.com</rdf:li></rdf:Alt></dc:rights></rdf:Description><rdf:Description rdf:about="" xmlns:Iptc4xmpCore="http://iptc.org/std/Iptc4xmpCore/1.0/xmlns/"><Iptc4xmpCore:CreditLine>freeicon.com</Iptc4xmpCore:CreditLine></rdf:Description><rdf:Description rdf:about="" xmlns:photoshop="http://ns.adobe.com/photoshop/1.0/"><photoshop:Credit>freeicon.com</photoshop:Credit><photoshop:Source>freeicon.com</photoshop:Source></rdf:Description></rdf:RDF></x:xmpmeta></metadata><path xmlns="http://www.w3.org/2000/svg" d="M535 41c-9.4-9.4-9.4-24.6 0-33.9s24.6-9.4 33.9 0l64 64c4.5 4.5 7 10.6 7 17s-2.5 12.5-7 17l-64 64c-9.4 9.4-24.6 9.4-33.9 0s-9.4-24.6 0-33.9l23-23L384 112c-13.3 0-24-10.7-24-24s10.7-24 24-24l174.1 0L535 41zM105 377l-23 23L256 400c13.3 0 24 10.7 24 24s-10.7 24-24 24L81.9 448l23 23c9.4 9.4 9.4 24.6 0 33.9s-24.6 9.4-33.9 0L7 441c-4.5-4.5-7-10.6-7-17s2.5-12.5 7-17l64-64c9.4-9.4 24.6-9.4 33.9 0s9.4 24.6 0 33.9zM96 64H337.9c-3.7 7.2-5.9 15.3-5.9 24c0 28.7 23.3 52 52 52l117.4 0c-4 17 .6 35.5 13.8 48.8c20.3 20.3 53.2 20.3 73.5 0L608 169.5V384c0 35.3-28.7 64-64 64H302.1c3.7-7.2 5.9-15.3 5.9-24c0-28.7-23.3-52-52-52l-117.4 0c4-17-.6-35.5-13.8-48.8c-20.3-20.3-53.2-20.3-73.5 0L32 342.5V128c0-35.3 28.7-64 64-64zm64 64H96v64c35.3 0 64-28.7 64-64zM544 320c-35.3 0-64 28.7-64 64h64V320zM320 352a96 96 0 1 0 0-192 96 96 0 1 0 0 192z" style="fill: rgb(59, 130, 246);"/></g></svg>