<svg version="1.1" xmlns="http://www.w3.org/2000/svg" xmlns:xlink="http://www.w3.org/1999/xlink" x="0px" y="0px" viewBox="0 0 512 512" style="enable-background:new 0 0 512 512;" xml:space="preserve"><g id="_x30_3_x2C__Calculator_x2C__accounting_x2C__budget_x2C__tax_calculate_x2C__expense_x2C__business_and_finance"><g><path style="fill:#FFFFFF;" d="M326,251h105V91h-80V11H81v200h180v260h60.5c0.99-4.9,3.42-9.28,6.82-12.68 C332.84,453.8,339.1,451,346,451c-13.81,0-25-11.19-25-25c0-13.8,11.176-25,25-25c-13.81,0-25-11.19-25-25c0-13.8,11.176-25,25-25 c-13.81,0-25-11.19-25-25c0-13.8,11.176-25,25-25h-20c-13.81,0-25-11.19-25-25C301,262.2,312.176,251,326,251z"/><path style="fill:#FFFFFF;" d="M31,211v290h230c0-12.752,0-277.401,0-290C253.76,211,35.441,211,31,211z"/><polygon style="fill:#FFFFFF;" points="431,91 351,91 351,11 "/><rect x="131" y="131" style="fill:#89CCFF;" width="250" height="40"/><rect x="81" y="261" style="fill:#89CCFF;" width="130" height="40"/><path style="fill:#89CCFF;" d="M456,401c13.81,0,25,11.19,25,25c0,13.824-11.2,25-25,25H346c-13.81,0-25-11.19-25-25 c0-13.824,11.2-25,25-25H456z"/><path style="fill:#89CCFF;" d="M456,301c13.81,0,25,11.19,25,25c0,13.824-11.2,25-25,25H346c-13.81,0-25-11.19-25-25 c0-13.824,11.2-25,25-25C358.976,301,447.124,301,456,301z"/><path style="fill:#FFFFFF;" d="M436,251c13.81,0,25,11.19,25,25c0,13.824-11.2,25-25,25c-12.976,0-101.124,0-110,0 c-13.81,0-25-11.19-25-25c0-13.824,11.2-25,25-25C336.455,251,419.791,251,436,251z"/><path style="fill:#FFFFFF;" d="M456,351c13.81,0,25,11.19,25,25c0,13.824-11.2,25-25,25H346c-13.81,0-25-11.19-25-25 c0-13.824,11.2-25,25-25H456z"/><path style="fill:#FFFFFF;" d="M456,451c13.81,0,25,11.19,25,25c0,13.824-11.2,25-25,25H346c-15.776,0-27.664-14.468-24.5-30 c2.292-11.345,12.337-20,24.5-20H456z"/><g><path style="fill:#2169AC;" d="M321.5,481H261c-5.522,0-10-4.478-10-10s4.478-10,10-10h60.5c5.522,0,10,4.478,10,10 S327.022,481,321.5,481z"/><path style="fill:#2169AC;" d="M431,261c-5.522,0-10-4.478-10-10V95.142L346.857,21H91v190c0,5.523-4.478,10-10,10 s-10-4.477-10-10V11c0-5.523,4.478-10,10-10h270c2.652,0,5.195,1.054,7.071,2.929l80,80C439.946,85.804,441,88.348,441,91v160 C441,256.522,436.522,261,431,261z"/><path style="fill:#2169AC;" d="M261,511H31c-5.522,0-10-4.478-10-10V211c0-5.523,4.478-10,10-10h230c5.522,0,10,4.477,10,10v290 C271,506.522,266.522,511,261,511z M41,491h210V221H41V491z"/><path style="fill:#2169AC;" d="M211,311H81c-5.522,0-10-4.478-10-10v-40c0-5.522,4.478-10,10-10h130c5.522,0,10,4.478,10,10v40 C221,306.522,216.522,311,211,311z M91,291h110v-20H91V291z"/><path style="fill:#2169AC;" d="M91,361H81c-5.522,0-10-4.478-10-10s4.478-10,10-10h10c5.522,0,10,4.478,10,10S96.522,361,91,361z "/><path style="fill:#2169AC;" d="M151,361h-10c-5.522,0-10-4.478-10-10s4.478-10,10-10h10c5.522,0,10,4.478,10,10 S156.522,361,151,361z"/><path style="fill:#2169AC;" d="M211,361h-10c-5.522,0-10-4.478-10-10s4.478-10,10-10h10c5.522,0,10,4.478,10,10 S216.522,361,211,361z"/><path style="fill:#2169AC;" d="M91,411H81c-5.522,0-10-4.478-10-10s4.478-10,10-10h10c5.522,0,10,4.478,10,10S96.522,411,91,411z "/><path style="fill:#2169AC;" d="M151,411h-10c-5.522,0-10-4.478-10-10s4.478-10,10-10h10c5.522,0,10,4.478,10,10 S156.522,411,151,411z"/><path style="fill:#2169AC;" d="M211,411h-10c-5.522,0-10-4.478-10-10s4.478-10,10-10h10c5.522,0,10,4.478,10,10 S216.522,411,211,411z"/><path style="fill:#2169AC;" d="M91,461H81c-5.522,0-10-4.478-10-10s4.478-10,10-10h10c5.522,0,10,4.478,10,10S96.522,461,91,461z "/><path style="fill:#2169AC;" d="M151,461h-10c-5.522,0-10-4.478-10-10s4.478-10,10-10h10c5.522,0,10,4.478,10,10 S156.522,461,151,461z"/><path style="fill:#2169AC;" d="M211,461h-10c-5.522,0-10-4.478-10-10s4.478-10,10-10h10c5.522,0,10,4.478,10,10 S216.522,461,211,461z"/><path style="fill:#2169AC;" d="M431,101h-80c-5.522,0-10-4.477-10-10V11c0-5.523,4.478-10,10-10s10,4.477,10,10v70h70 c5.522,0,10,4.477,10,10S436.522,101,431,101z"/><path style="fill:#2169AC;" d="M456,361H346c-19.299,0-35-15.701-35-35s15.701-35,35-35h110c19.299,0,35,15.701,35,35 S475.299,361,456,361z M346,311c-8.271,0-15,6.729-15,15s6.729,15,15,15h110c8.271,0,15-6.729,15-15s-6.729-15-15-15H346z"/><path style="fill:#2169AC;" d="M436,311H326c-19.299,0-35-15.701-35-35s15.701-35,35-35h110c19.299,0,35,15.701,35,35 S455.299,311,436,311z M326,261c-8.271,0-15,6.729-15,15s6.729,15,15,15h110c8.271,0,15-6.729,15-15s-6.729-15-15-15H326z"/><path style="fill:#2169AC;" d="M456,411H346c-19.299,0-35-15.701-35-35s15.701-35,35-35h110c19.299,0,35,15.701,35,35 S475.299,411,456,411z M346,361c-8.271,0-15,6.729-15,15s6.729,15,15,15h110c8.271,0,15-6.729,15-15s-6.729-15-15-15H346z"/><path style="fill:#2169AC;" d="M456,461H346c-19.299,0-35-15.701-35-35s15.701-35,35-35h110c19.299,0,35,15.701,35,35 S475.299,461,456,461z M346,411c-8.271,0-15,6.729-15,15s6.729,15,15,15h110c8.271,0,15-6.729,15-15s-6.729-15-15-15H346z"/><path style="fill:#2169AC;" d="M456,511H346c-19.299,0-35-15.701-35-35s15.701-35,35-35h110c19.299,0,35,15.701,35,35 S475.299,511,456,511z M346,461c-8.271,0-15,6.729-15,15s6.729,15,15,15h110c8.271,0,15-6.729,15-15s-6.729-15-15-15H346z"/><path style="fill:#2169AC;" d="M381,181H131c-5.522,0-10-4.477-10-10v-40c0-5.523,4.478-10,10-10h250c5.522,0,10,4.477,10,10v40 C391,176.523,386.522,181,381,181z M141,161h230v-20H141V161z"/><path style="fill:#2169AC;" d="M301,61H131c-5.522,0-10-4.477-10-10s4.478-10,10-10h170c5.522,0,10,4.477,10,10 S306.522,61,301,61z"/><path style="fill:#2169AC;" d="M301,101H131c-5.522,0-10-4.477-10-10s4.478-10,10-10h170c5.522,0,10,4.477,10,10 S306.522,101,301,101z"/></g></g></g><g id="Layer_1"></g></svg>