<svg version="1.1" xmlns="http://www.w3.org/2000/svg" xmlns:xlink="http://www.w3.org/1999/xlink" x="0px" y="0px" viewBox="0 0 512 512" style="enable-background:new 0 0 512 512;" xml:space="preserve"><g id="_x31_3_x2C__Tax_x2C__accounting_x2C__tamoney_x2C__expense_x2C__business_and_finance_x2C__budget"><g><path style="fill:#FFFFFF;" d="M401,161c14.22,0,27.75,2.97,40,8.33V41c0-16.57-13.43-30-30-30H61l-0.03,0.27 C83.48,13.75,101,32.83,101,56c0,31.873,0,379.819,0,400c0,24.85,20.15,45,45,45c24.678,0,45-19.975,45-45v-45h250v-58.33 c-12.25,5.36-25.78,8.33-40,8.33c-55.23,0-100-44.77-100-100S345.77,161,401,161z"/><rect x="141" y="161" style="fill:#FFFFFF;" width="120" height="50"/><rect x="141" y="61" style="fill:#FFFFFF;" width="260" height="50"/><path style="fill:#89CCFF;" d="M501,411v15.67c0,41.05-33.28,74.33-74.33,74.33H151l-0.03-0.27 C173.413,498.258,191,479.25,191,456v-45C200.16,411,498.96,411,501,411z"/><path style="fill:#89CCFF;" d="M101,101H11V56c0-24.863,20.159-45,45-45c24.903,0,45,20.207,45,45C101,71.046,101,88.267,101,101z "/><circle style="fill:#89CCFF;" cx="401" cy="261" r="100"/><g><path style="fill:#2169AC;" d="M101,111H11c-5.522,0-10-4.478-10-10V56C1,25.673,25.673,1,56,1s55,24.673,55,55v45 C111,106.522,106.522,111,101,111z M21,91h70V56c0-19.299-15.701-35-35-35S21,36.701,21,56V91z"/><path style="fill:#2169AC;" d="M441,179.33c-5.522,0-10-4.478-10-10V41c0-11.028-8.972-20-20-20H61c-5.522,0-10-4.478-10-10 S55.478,1,61,1h350c22.056,0,40,17.944,40,40v128.33C451,174.853,446.522,179.33,441,179.33z"/><path style="fill:#2169AC;" d="M441,421c-5.522,0-10-4.478-10-10v-58.33c0-5.522,4.478-10,10-10s10,4.478,10,10V411 C451,416.522,446.522,421,441,421z"/><path style="fill:#2169AC;" d="M426.667,511H151c-0.507,0-1.006-0.038-1.492-0.11c-1.159,0.073-2.33,0.11-3.508,0.11 c-30.327,0-55-24.673-55-55V91c0-5.522,4.478-10,10-10s10,4.478,10,10v365c0,19.299,15.701,35,35,35s35-15.701,35-35v-45 c0-5.522,4.478-10,10-10h310c5.522,0,10,4.478,10,10v15.667C511,473.168,473.168,511,426.667,511z M188.396,491h238.271 C462.141,491,491,462.141,491,426.667V421H201v35C201,469.285,196.267,481.483,188.396,491z"/><path style="fill:#2169AC;" d="M351.502,310.498c-3.905-3.905-3.905-10.237,0-14.143l84.854-84.854 c3.906-3.904,10.236-3.904,14.143,0c3.905,3.905,3.905,10.237,0,14.143l-84.854,84.854 C361.737,314.404,355.408,314.402,351.502,310.498z"/><path style="fill:#2169AC;" d="M401,371c-60.654,0-110-49.346-110-110s49.346-110,110-110s110,49.346,110,110 S461.654,371,401,371z M401,171c-49.626,0-90,40.374-90,90s40.374,90,90,90s90-40.374,90-90S450.626,171,401,171z"/><path style="fill:#2169AC;" d="M401,121H141c-5.522,0-10-4.478-10-10V61c0-5.522,4.478-10,10-10h260c5.522,0,10,4.478,10,10v50 C411,116.522,406.522,121,401,121z M151,101h240V71H151V101z"/><path style="fill:#2169AC;" d="M261,221H141c-5.522,0-10-4.478-10-10v-50c0-5.522,4.478-10,10-10h120c5.522,0,10,4.478,10,10v50 C271,216.522,266.522,221,261,221z M151,201h100v-30H151V201z"/><path style="fill:#2169AC;" d="M261,271H141c-5.522,0-10-4.478-10-10s4.478-10,10-10h120c5.522,0,10,4.478,10,10 S266.522,271,261,271z"/><path style="fill:#2169AC;" d="M261,321H141c-5.522,0-10-4.478-10-10s4.478-10,10-10h120c5.522,0,10,4.478,10,10 S266.522,321,261,321z"/><path style="fill:#2169AC;" d="M291,371H141c-5.522,0-10-4.478-10-10s4.478-10,10-10h150c5.522,0,10,4.478,10,10 S296.522,371,291,371z"/><circle style="fill:#2169AC;" cx="372.72" cy="232.721" r="10"/><circle style="fill:#2169AC;" cx="429.279" cy="289.284" r="10"/></g></g></g><g id="Layer_1"></g></svg>