<svg xmlns="http://www.w3.org/2000/svg" viewBox="0 0 512 512"><rect x="26" y="56" width="460" height="312" rx="28" fill="#FFFFFF"/><rect x="26" y="56" width="460" height="56" rx="28" fill="#89CCFF"/><rect x="26" y="90" width="460" height="22" fill="#89CCFF"/><path d="M78 300 L168 220 L238 262 L330 160 L434 204 L434 330 L78 330 Z" fill="#89CCFF"/><path d="M78 300 L168 220 L238 262 L330 160 L434 204" fill="none" stroke="#2169AC" stroke-width="22" stroke-linecap="round" stroke-linejoin="round"/><circle cx="168" cy="220" r="17" fill="#FFFFFF" stroke="#2169AC" stroke-width="14"/><circle cx="238" cy="262" r="17" fill="#FFFFFF" stroke="#2169AC" stroke-width="14"/><circle cx="330" cy="160" r="17" fill="#FFFFFF" stroke="#2169AC" stroke-width="14"/><rect x="26" y="56" width="460" height="312" rx="28" fill="none" stroke="#2169AC" stroke-width="22"/><circle cx="72" cy="84" r="9" fill="#2169AC"/><circle cx="104" cy="84" r="9" fill="#2169AC"/><path d="M196 368 L180 438 H332 L316 368" fill="#89CCFF" stroke="#2169AC" stroke-width="22" stroke-linejoin="round"/><path d="M140 452 H372" stroke="#2169AC" stroke-width="22" stroke-linecap="round"/></svg>
