<svg version="1.1" xmlns="http://www.w3.org/2000/svg" xmlns:xlink="http://www.w3.org/1999/xlink" x="0px" y="0px" viewBox="0 0 512 512" style="enable-background:new 0 0 512 512;" xml:space="preserve"><g id="_x32_7__Feedback_x2C__review_x2C__comment_x2C__marketing_x2C__good_feedback"><g><g><g><path style="fill:#FFFFFF;" d="M471,10.97H41c-16.57,0-30,13.43-30,30v160.06c0,16.57,13.43,30,30,30h68l-28,70l105-70h285 c16.57,0,30-13.43,30-30V40.97C501,24.4,487.57,10.97,471,10.97z"/><path style="fill:#FFFFFF;" d="M463.22,474.36v26.67H338.78v-26.67c0-34.36,27.86-62.22,62.22-62.22S463.22,440,463.22,474.36z" /><path style="fill:#FFFFFF;" d="M401,341.03c19.64,0,35.56,15.92,35.56,35.55c0,19.64-15.92,35.56-35.56,35.56 s-35.56-15.92-35.56-35.56C365.44,356.95,381.36,341.03,401,341.03z"/><polygon style="fill:#89CCFF;" points="426,104.5 389.2,140.38 397.89,191.03 349.6,167.11 304.11,191.03 312.8,140.38 276,104.5 326.86,97.11 349.6,51.03 375.14,97.11 "/><path style="fill:#FFFFFF;" d="M337.67,466.03v35H174.33v-35c0-45.1,36.57-81.67,81.67-81.67S337.67,420.93,337.67,466.03z"/><path style="fill:#FFFFFF;" d="M256,291.03c25.77,0,46.67,20.89,46.67,46.67c0,25.77-20.9,46.66-46.67,46.66 s-46.67-20.89-46.67-46.66C209.33,311.92,230.23,291.03,256,291.03z"/><polygon style="fill:#89CCFF;" points="236,104.5 199.2,140.38 207.89,191.03 159.6,167.11 114.11,191.03 122.8,140.38 86,104.5 136.86,97.11 159.6,51.03 185.14,97.11 "/><path style="fill:#FFFFFF;" d="M173.22,474.36v26.67H48.78v-26.67c0-34.36,27.86-62.22,62.22-62.22S173.22,440,173.22,474.36z" /><path style="fill:#FFFFFF;" d="M111,341.03c19.64,0,35.56,15.92,35.56,35.55c0,19.64-15.92,35.56-35.56,35.56 s-35.56-15.92-35.56-35.56C75.44,356.95,91.36,341.03,111,341.03z"/></g></g><g><g><path style="fill:#2169AC;" d="M471,0.971H41c-22.056,0-40,17.944-40,40v160.059c0,22.056,17.944,40,40,40h53.229 l-22.514,56.286c-1.627,4.067-0.417,8.72,2.984,11.479c3.409,2.765,8.212,2.98,11.848,0.555l102.481-68.32H471 c22.056,0,40-17.944,40-40V40.971C511,18.915,493.056,0.971,471,0.971z M491,201.029c0,11.028-8.972,20-20,20H186 c-1.974,0-3.904,0.584-5.547,1.68l-78.211,52.141l16.042-40.106c2.627-6.567-2.221-13.714-9.285-13.714H41 c-11.028,0-20-8.972-20-20V40.971c0-11.028,8.972-20,20-20h430c11.028,0,20,8.972,20,20V201.029z"/><path style="fill:#2169AC;" d="M432.543,409.406c8.627-8.294,14.012-19.938,14.012-32.822c0-25.119-20.436-45.556-45.556-45.556 c-25.12,0-45.556,20.436-45.556,45.556c0,12.884,5.385,24.527,14.013,32.822c-11.202,5.462-20.782,13.742-27.831,23.906 c-8.914-23.25-27.032-41.977-49.876-51.689c12.754-10.399,20.917-26.225,20.917-43.926c0-31.246-25.42-56.667-56.666-56.667 s-56.667,25.421-56.667,56.667c0,17.701,8.163,33.527,20.917,43.926c-22.844,9.712-40.963,28.44-49.876,51.69 c-7.049-10.164-16.629-18.444-27.831-23.906c8.627-8.294,14.012-19.938,14.012-32.822c0-25.119-20.436-45.556-45.556-45.556 c-25.12,0-45.556,20.436-45.556,45.556c0,12.884,5.385,24.527,14.013,32.822c-24.06,11.731-40.679,36.437-40.679,64.956v26.667 c0,5.522,4.477,10,10,10c83.441,0,398.704,0,414.444,0c5.523,0,10-4.478,10-10v-26.667 C473.222,445.843,456.603,421.138,432.543,409.406z M375.444,376.585c0-14.092,11.464-25.556,25.556-25.556 c14.091,0,25.556,11.464,25.556,25.556S415.091,402.141,401,402.141C386.909,402.141,375.444,390.677,375.444,376.585z M219.333,337.696c0-20.219,16.449-36.667,36.667-36.667c20.218,0,36.666,16.448,36.666,36.667 c0,20.218-16.449,36.666-36.666,36.666C235.782,374.362,219.333,357.914,219.333,337.696z M85.444,376.585 c0-14.092,11.464-25.556,25.556-25.556c14.091,0,25.556,11.464,25.556,25.556S125.091,402.141,111,402.141 C96.909,402.141,85.444,390.677,85.444,376.585z M163.222,491.029H58.778v-16.667c0-28.795,23.427-52.222,52.222-52.222 c28.795,0,52.222,23.427,52.222,52.222V491.029z M327.666,491.029H184.333v-25c0-39.518,32.149-71.667,71.667-71.667 s71.666,32.149,71.666,71.667V491.029z M453.222,491.029H348.778v-16.667c0-28.795,23.427-52.222,52.222-52.222 c28.795,0,52.222,23.427,52.222,52.222V491.029z"/><path style="fill:#2169AC;" d="M427.438,94.608l-45.952-6.678l-23.137-41.749c-1.803-3.255-5.287-5.26-8.984-5.149 c-3.72,0.089-7.083,2.234-8.729,5.571l-20.418,41.371l-45.655,6.634c-3.767,0.548-6.897,3.187-8.073,6.807 c-1.176,3.62-0.195,7.594,2.531,10.251l33.037,32.202l-7.799,45.471c-0.643,3.752,0.898,7.543,3.978,9.78 c3.081,2.238,7.162,2.531,10.531,0.762l40.971-21.54l43.71,21.649c3.372,1.67,7.397,1.306,10.413-0.942 c3.018-2.248,4.517-6,3.881-9.709l-7.799-45.471l33.037-32.202c2.726-2.657,3.707-6.631,2.531-10.251 C434.334,97.795,431.205,95.156,427.438,94.608z M382.219,133.216c-2.357,2.298-3.433,5.607-2.876,8.852l5.364,31.274 l-30.665-15.188c-2.928-1.451-6.309-1.353-9.092,0.109l-27.554,14.486l5.262-30.682c0.557-3.244-0.519-6.554-2.876-8.852 l-22.292-21.729l30.806-4.477c3.257-0.474,6.073-2.519,7.529-5.471l14.291-28.955l16.28,29.377 c1.514,2.731,4.217,4.6,7.309,5.049l30.806,4.477L382.219,133.216z"/><path style="fill:#2169AC;" d="M237.438,94.608l-45.952-6.678l-23.137-41.749c-1.803-3.255-5.283-5.26-8.984-5.149 c-3.72,0.089-7.083,2.234-8.729,5.571l-20.418,41.371l-45.655,6.634c-3.767,0.548-6.897,3.187-8.073,6.807 c-1.176,3.62-0.195,7.594,2.531,10.251l33.037,32.202l-7.799,45.471c-0.644,3.752,0.898,7.543,3.978,9.78 c3.08,2.238,7.162,2.531,10.531,0.762l40.971-21.54l43.71,21.649c3.372,1.67,7.397,1.306,10.413-0.942 c3.018-2.248,4.517-6,3.881-9.709l-7.799-45.471l33.037-32.202c2.726-2.657,3.707-6.631,2.531-10.251 C244.334,97.795,241.205,95.156,237.438,94.608z M192.219,133.216c-2.357,2.298-3.433,5.607-2.876,8.852l5.364,31.274 l-30.665-15.188c-2.928-1.451-6.309-1.353-9.092,0.109l-27.554,14.486l5.262-30.682c0.557-3.244-0.519-6.554-2.876-8.852 l-22.292-21.729l30.806-4.477c3.257-0.474,6.073-2.519,7.529-5.471l14.29-28.955l16.28,29.377 c1.514,2.731,4.217,4.6,7.309,5.049l30.806,4.477L192.219,133.216z"/></g></g></g></g><g id="Layer_1"></g></svg>