<svg xmlns="http://www.w3.org/2000/svg" viewBox="0 0 512 512" width="512" height="512"><g transform="translate(256 256) rotate(0) scale(0.8861538461538462 0.8861538461538462) translate(-260 -260)"><metadata xmlns="http://www.w3.org/2000/svg"><x:xmpmeta xmlns:x="adobe:ns:meta/"><rdf:RDF xmlns:rdf="http://www.w3.org/1999/02/22-rdf-syntax-ns#"><rdf:Description rdf:about="" xmlns:dc="http://purl.org/dc/elements/1.1/"><dc:creator><rdf:Seq><rdf:li>Freeicon</rdf:li></rdf:Seq></dc:creator><dc:rights><rdf:Alt><rdf:li xml:lang="x-default">Free for personal and commercial use - freeicon.com</rdf:li></rdf:Alt></dc:rights></rdf:Description><rdf:Description rdf:about="" xmlns:Iptc4xmpCore="http://iptc.org/std/Iptc4xmpCore/1.0/xmlns/"><Iptc4xmpCore:CreditLine>freeicon.com</Iptc4xmpCore:CreditLine></rdf:Description><rdf:Description rdf:about="" xmlns:photoshop="http://ns.adobe.com/photoshop/1.0/"><photoshop:Credit>freeicon.com</photoshop:Credit><photoshop:Source>freeicon.com</photoshop:Source></rdf:Description></rdf:RDF></x:xmpmeta></metadata><g xmlns="http://www.w3.org/2000/svg" id="_x31_5_x2C__Sticky_Notes_x2C__Reminder_x2C__Task_x2C__Memo_x2C__Planner_x2C__Organizer"><g><path style="fill: rgb(59, 130, 246);" d="M208.939,472.879h-95.721c-4.143,0-7.5-3.357-7.5-7.5V263.37c0-4.143,3.357-7.5,7.5-7.5 s7.5,3.357,7.5,7.5v194.51h88.221c4.143,0,7.5,3.357,7.5,7.5S213.081,472.879,208.939,472.879z"/><path style="fill: rgb(59, 130, 246);" d="M429.178,472.879H268.939c-4.143,0-7.5-3.357-7.5-7.5s3.357-7.5,7.5-7.5h152.739v-311.49h-136.38 c-4.143,0-7.5-3.357-7.5-7.5s3.357-7.5,7.5-7.5h143.88c4.143,0,7.5,3.357,7.5,7.5v326.49 C436.678,469.522,433.321,472.879,429.178,472.879z"/><path style="fill: rgb(59, 130, 246);" d="M471.308,515.009h-315.96c-4.143,0-7.5-3.357-7.5-7.5v-42.13c0-4.143,3.357-7.5,7.5-7.5 s7.5,3.357,7.5,7.5v34.63h300.96V296.29c0-4.143,3.357-7.5,7.5-7.5s7.5,3.357,7.5,7.5v211.22 C478.808,511.652,475.451,515.009,471.308,515.009z"/><path style="fill: rgb(59, 130, 246);" d="M471.308,243.79c-4.143,0-7.5-3.357-7.5-7.5v-47.771h-34.63c-4.143,0-7.5-3.357-7.5-7.5 s3.357-7.5,7.5-7.5h42.13c4.143,0,7.5,3.357,7.5,7.5v55.271C478.808,240.432,475.451,243.79,471.308,243.79z"/><path style="fill: rgb(6, 182, 212);" d="M142.777,333.385L42.105,148.361c-1.978-3.634-0.637-8.194,3.004-10.173 c175.687-95.297,165.475-90.854,168.894-90.854c6.763,0,10.047,8.291,5.17,12.933c-1.365,1.309,8.643-4.512-160.307,87.514 l93.503,171.848l171.848-93.502L248.671,87.275c-1.979-3.638-0.635-8.192,3.004-10.172c3.636-1.979,8.191-0.637,10.172,3.004 l79.13,145.438c1.979,3.638,0.635,8.192-3.003,10.172L152.95,336.388C149.304,338.37,144.754,337.017,142.777,333.385z"/><path style="fill: rgb(6, 182, 212);" d="M115.909,187.647c-7.763,0-10.388-10.391-3.591-14.089l46.256-25.167 c3.636-1.979,8.192-0.637,10.172,3.004c1.979,3.638,0.635,8.192-3.004,10.172C116.931,187.748,119.343,187.647,115.909,187.647z"/><path style="fill: rgb(6, 182, 212);" d="M136.041,224.652c-7.762,0-10.388-10.391-3.591-14.089l111.016-60.399 c3.637-1.979,8.192-0.635,10.172,3.004c1.979,3.638,0.635,8.192-3.004,10.172C133.928,226.45,139.655,224.652,136.041,224.652z"/><path style="fill: rgb(6, 182, 212);" d="M149.579,257.741c-1.979-3.638-0.635-8.192,3.004-10.172l37.006-20.134 c3.636-1.979,8.192-0.637,10.172,3.004c1.979,3.638,0.635,8.192-3.004,10.172l-37.006,20.134 C156.128,262.716,151.566,261.394,149.579,257.741z"/><path style="fill: rgb(6, 182, 212);" d="M223.59,217.474c-1.979-3.639-0.635-8.192,3.004-10.172l37.006-20.133 c3.637-1.979,8.192-0.635,10.172,3.004s0.635,8.192-3.004,10.172l-37.006,20.133C230.132,222.454,225.574,221.119,223.59,217.474z "/><path style="fill: rgb(6, 182, 212);" d="M255.134,101.488l-61.91-26.247c-6.131-2.6-6.073-11.355,0.115-13.858 c18.124-7.331,26.859-27.933,19.527-46.061c-2.5-6.179,3.738-12.32,9.88-9.718l61.91,26.247c6.131,2.6,6.073,11.355-0.115,13.858 c-18.125,7.331-26.859,27.933-19.527,46.061C267.508,97.934,261.292,104.096,255.134,101.488z M212.541,67.138l34.985,14.832 c-1.104-15.752,5.433-31.612,17.812-42.017l-34.985-14.832C231.448,40.753,225.017,56.651,212.541,67.138z"/><path style="fill: rgb(6, 182, 212);" d="M208.2,126.057c-3.813-1.617-5.594-6.019-3.978-9.833l15.979-37.693 c1.618-3.812,6.02-5.594,9.833-3.978c3.813,1.617,5.594,6.019,3.978,9.833l-15.979,37.693 C216.42,125.882,212.024,127.678,208.2,126.057z"/><path style="fill: rgb(59, 130, 246);" d="M376.517,312.509h-84.256c-4.143,0-7.5-3.357-7.5-7.5s3.357-7.5,7.5-7.5h84.256 c4.143,0,7.5,3.357,7.5,7.5S380.66,312.509,376.517,312.509z"/><path style="fill: rgb(59, 130, 246);" d="M376.517,350.009H202.474c-4.143,0-7.5-3.357-7.5-7.5s3.357-7.5,7.5-7.5h174.043 c4.143,0,7.5,3.357,7.5,7.5S380.66,350.009,376.517,350.009z"/><path style="fill: rgb(59, 130, 246);" d="M376.517,387.509H165.878c-4.143,0-7.5-3.357-7.5-7.5s3.357-7.5,7.5-7.5h210.639 c4.143,0,7.5,3.357,7.5,7.5S380.66,387.509,376.517,387.509z"/><path style="fill: rgb(59, 130, 246);" d="M376.517,425.009H165.878c-4.143,0-7.5-3.357-7.5-7.5s3.357-7.5,7.5-7.5h210.639 c4.143,0,7.5,3.357,7.5,7.5S380.66,425.009,376.517,425.009z"/><circle style="fill: rgb(59, 130, 246);" cx="471.304" cy="266.287" r="7.5"/><circle style="fill: rgb(59, 130, 246);" cx="238.94" cy="465.382" r="7.5"/></g></g><g xmlns="http://www.w3.org/2000/svg" id="Layer_1"></g></g></svg>