<?xml version="1.0" encoding="UTF-8"?>
<svg version="1.1" xmlns="http://www.w3.org/2000/svg" width="192" height="192">
<path d="M0 0 C1.05058594 0.36222656 2.10117188 0.72445313 3.18359375 1.09765625 C10.70222519 3.92312921 16.78168742 7.9613379 23 13 C23.8559375 13.67933594 24.711875 14.35867187 25.59375 15.05859375 C40.47151127 27.57152568 49.74055909 45.79475223 52 65 C53.19864919 87.33314672 48.5462764 106.9775627 35 125 C32.17334853 128.01956833 29.85727109 130.42851918 26 132 C26 132.66 26 133.32 26 134 C24.07286641 135.53747805 22.16301507 136.93565362 20.125 138.3125 C19.53074219 138.71621826 18.93648438 139.11993652 18.32421875 139.53588867 C0.74936097 151.28316928 -20.40431368 156.12546025 -41.37109375 152.31640625 C-53.31634532 149.70732693 -66.70556505 145.16336614 -76 137 C-76 136.34 -76 135.68 -76 135 C-76.57105469 134.75121094 -77.14210938 134.50242188 -77.73046875 134.24609375 C-90.10199035 127.45346829 -98.55785533 111.08834439 -102.6875 98.0625 C-103.14574949 96.38051608 -103.58332032 94.69276122 -104 93 C-104.20625 92.18273437 -104.4125 91.36546875 -104.625 90.5234375 C-108.84168819 71.13838484 -105.24507824 50.91574386 -95.1484375 33.875 C-82.55803802 14.43036759 -66.36538737 3.05729241 -44 -3 C-43.39196533 -3.1757959 -42.78393066 -3.3515918 -42.1574707 -3.53271484 C-28.73999993 -6.43879599 -12.74329069 -4.72260469 0 0 Z " fill="#AD1D20" transform="translate(123,21)"/>
<path d="M0 0 C19.37532194 -1.01147272 19.37532194 -1.01147272 27 5 C31.15692061 8.90498603 32.81649019 13.06550716 33.125 18.734375 C32.85841952 23.56614611 31.62437739 27.31079158 28.23828125 30.83203125 C26.53929996 32.30356272 24.82060405 33.68317953 23 35 C23.54269531 35.30292969 24.08539063 35.60585937 24.64453125 35.91796875 C25.35996094 36.33691406 26.07539063 36.75585938 26.8125 37.1875 C27.52019531 37.59355469 28.22789062 37.99960938 28.95703125 38.41796875 C32.62750615 41.26030591 33.85340147 43.90906261 34.46875 48.48828125 C34.57328849 61.2811788 34.57328849 61.2811788 30.6171875 66.421875 C23.15850985 73.70039135 14.61278142 75.2757164 4.56640625 75.4140625 C3.68846909 75.43342865 2.81053192 75.4527948 1.9059906 75.4727478 C-0.8750767 75.53212738 -3.65618633 75.57876117 -6.4375 75.625 C-8.33269951 75.66321816 -10.22788236 75.70227208 -12.12304688 75.7421875 C-16.74856129 75.83779429 -21.37415692 75.92197755 -26 76 C-26.31638428 76.61294922 -26.63276855 77.22589844 -26.95874023 77.85742188 C-33.42442149 90.3654571 -39.9832328 102.79153383 -47 115 C-50.19293609 114.41567183 -51.97639492 113.49915327 -54.3125 111.25 C-54.84488281 110.76015625 -55.37726562 110.2703125 -55.92578125 109.765625 C-57 108 -57 108 -56.73120117 105.69726562 C-55.95154216 102.82124802 -54.87116599 100.65141049 -53.375 98.078125 C-52.83230469 97.13324219 -52.28960937 96.18835938 -51.73046875 95.21484375 C-51.15941406 94.23644531 -50.58835937 93.25804688 -50 92.25 C-44.4208534 82.62297615 -39.1628443 72.85447662 -34 63 C-33.44733963 62.99413376 -32.89467926 62.98826752 -32.32527161 62.98222351 C-26.56604053 62.91822178 -20.80736474 62.83378484 -15.04858398 62.73754883 C-12.90022102 62.70432254 -10.75177125 62.67628347 -8.60327148 62.65356445 C-5.51248224 62.61997669 -2.42248688 62.56765779 0.66796875 62.51171875 C2.10573921 62.50213387 2.10573921 62.50213387 3.57255554 62.49235535 C8.60393652 62.38176596 11.82654881 62.09546836 16 59 C16.66 59 17.32 59 18 59 C18.05416188 57.39620659 18.09286638 55.79188594 18.125 54.1875 C18.14820312 53.29417969 18.17140625 52.40085938 18.1953125 51.48046875 C18.18285827 48.74597286 18.18285827 48.74597286 16 46 C9.62725082 42.45700046 1.37039839 43.39454561 -5.71020508 43.29980469 C-7.52713146 43.26662476 -9.34379343 43.21195665 -11.15942383 43.13574219 C-21.4525939 42.25959133 -21.4525939 42.25959133 -30.46240234 46.0859375 C-32.04206766 48.68876753 -33.06855699 51.10810711 -34 54 C-34.51046875 54.9796875 -35.0209375 55.959375 -35.546875 56.96875 C-35.94390625 57.8040625 -36.3409375 58.639375 -36.75 59.5 C-40.84611017 67.84194761 -45.44578202 75.9024817 -50 84 C-50.88154958 85.57029052 -51.76306049 87.14060274 -52.64453125 88.7109375 C-54.75941632 92.47599647 -56.87848781 96.23867162 -59 100 C-63 100 -63 100 -64.9921875 98.4609375 C-65.61351562 97.77257812 -66.23484375 97.08421875 -66.875 96.375 C-67.51179688 95.70210938 -68.14859375 95.02921875 -68.8046875 94.3359375 C-70 92 -70 92 -69.4375 89.1640625 C-67.84524658 85.65937426 -66.06195523 82.321469 -64.125 79 C-63.31364926 77.58416609 -62.50383926 76.16744848 -61.6953125 74.75 C-61.2612207 73.98945312 -60.82712891 73.22890625 -60.37988281 72.4453125 C-57.86715185 67.99246159 -55.43843951 63.49382318 -53 59 C-49.30687235 52.20876495 -45.59512735 45.42936774 -41.8125 38.6875 C-41.25079102 37.68299805 -41.25079102 37.68299805 -40.67773438 36.65820312 C-38.12244665 32.12244665 -38.12244665 32.12244665 -37 31 C-35.65601165 30.89360161 -34.30663999 30.85383316 -32.95849609 30.84228516 C-32.10025238 30.83202301 -31.24200867 30.82176086 -30.35775757 30.81118774 C-28.95476913 30.80023575 -28.95476913 30.80023575 -27.5234375 30.7890625 C-25.55337735 30.76097703 -23.58332538 30.73231247 -21.61328125 30.703125 C-18.49951552 30.66196744 -15.38589985 30.62509262 -12.27197266 30.59863281 C-9.27213628 30.57091408 -6.27300118 30.52502188 -3.2734375 30.4765625 C-2.35025726 30.47330963 -1.42707703 30.47005676 -0.47592163 30.46670532 C5.88805996 30.34651164 11.0377641 29.59195641 16 25.25 C17.5139397 21.84363568 16.98045406 19.5296346 16 16 C12.91816608 13.87240364 9.98794738 13.66813555 6.3125 13.4375 C1.09915014 13.09915014 1.09915014 13.09915014 0 12 C-0.07244053 9.98035801 -0.08377188 7.95832876 -0.0625 5.9375 C-0.05347656 4.83277344 -0.04445313 3.72804687 -0.03515625 2.58984375 C-0.02355469 1.73519531 -0.01195313 0.88054688 0 0 Z " fill="#F7F9FC" transform="translate(106,32)"/>
<path d="M0 0 C1.79244141 0.01740234 1.79244141 0.01740234 3.62109375 0.03515625 C5.41740234 0.04869141 5.41740234 0.04869141 7.25 0.0625 C8.17683594 0.07410156 9.10367188 0.08570312 10.05859375 0.09765625 C10.08545928 2.07675023 10.1049275 4.05594596 10.12109375 6.03515625 C10.13269531 7.13730469 10.14429687 8.23945312 10.15625 9.375 C10.05859375 12.09765625 10.05859375 12.09765625 9.05859375 13.09765625 C7.06059803 13.19639441 5.05902217 13.22737424 3.05859375 13.22265625 C1.96546875 13.22523437 0.87234375 13.2278125 -0.25390625 13.23046875 C-2.94140625 13.09765625 -2.94140625 13.09765625 -3.94140625 12.09765625 C-4.03991796 10.26649742 -4.07113254 8.43145692 -4.06640625 6.59765625 C-4.06898437 5.59734375 -4.0715625 4.59703125 -4.07421875 3.56640625 C-3.88057286 -0.03312905 -3.65670016 0.12140439 0 0 Z " fill="#EDF3F9" transform="translate(92.94140625,31.90234375)"/>
<path d="M0 0 C2.14576637 -0.02685938 4.29162645 -0.04633088 6.4375 -0.0625 C7.63246094 -0.07410156 8.82742187 -0.08570312 10.05859375 -0.09765625 C13 0 13 0 14 1 C14.09851171 2.83115883 14.12972629 4.66619933 14.125 6.5 C14.12757812 7.5003125 14.13015625 8.500625 14.1328125 9.53125 C14 12 14 12 13 13 C11.00200428 13.09873816 9.00042842 13.12971799 7 13.125 C5.906875 13.12757812 4.81375 13.13015625 3.6875 13.1328125 C1 13 1 13 0 12 C-0.07244053 9.98035801 -0.08377188 7.95832876 -0.0625 5.9375 C-0.05347656 4.83277344 -0.04445313 3.72804687 -0.03515625 2.58984375 C-0.02355469 1.73519531 -0.01195313 0.88054688 0 0 Z " fill="#ECF2F9" transform="translate(73,32)"/>
<path d="M0 0 C1.093125 0.00257812 2.18625 0.00515625 3.3125 0.0078125 C4.405625 0.00523438 5.49875 0.00265625 6.625 0 C9.3125 0.1328125 9.3125 0.1328125 10.3125 1.1328125 C10.41101171 2.96397133 10.44222629 4.79901183 10.4375 6.6328125 C10.44007812 7.633125 10.44265625 8.6334375 10.4453125 9.6640625 C10.3125 12.1328125 10.3125 12.1328125 9.3125 13.1328125 C7.31450428 13.23155066 5.31292842 13.26253049 3.3125 13.2578125 C2.219375 13.26039062 1.12625 13.26296875 0 13.265625 C-2.6875 13.1328125 -2.6875 13.1328125 -3.6875 12.1328125 C-3.78601171 10.30165367 -3.81722629 8.46661317 -3.8125 6.6328125 C-3.81507812 5.6325 -3.81765625 4.6321875 -3.8203125 3.6015625 C-3.63438294 0.14546005 -3.47791105 0.17187351 0 0 Z " fill="#EBF0F7" transform="translate(101.6875,113.8671875)"/>
</svg>
